%TF.GenerationSoftware,KiCad,Pcbnew,9.0.7*%
%TF.CreationDate,2026-04-10T19:36:54+01:00*%
%TF.ProjectId,Untitled,556e7469-746c-4656-942e-6b696361645f,rev?*%
%TF.SameCoordinates,Original*%
%TF.FileFunction,Copper,L1,Top*%
%TF.FilePolarity,Positive*%
%FSLAX46Y46*%
G04 Gerber Fmt 4.6, Leading zero omitted, Abs format (unit mm)*
G04 Created by KiCad (PCBNEW 9.0.7) date 2026-04-10 19:36:54*
%MOMM*%
%LPD*%
G01*
G04 APERTURE LIST*
%TA.AperFunction,ComponentPad*%
%ADD10R,2.500000X2.500000*%
%TD*%
%TA.AperFunction,ComponentPad*%
%ADD11C,2.500000*%
%TD*%
%TA.AperFunction,ComponentPad*%
%ADD12R,1.600000X1.600000*%
%TD*%
%TA.AperFunction,ComponentPad*%
%ADD13O,1.600000X1.600000*%
%TD*%
%TA.AperFunction,ViaPad*%
%ADD14C,0.600000*%
%TD*%
%TA.AperFunction,Conductor*%
%ADD15C,0.200000*%
%TD*%
%TA.AperFunction,Conductor*%
%ADD16C,0.400000*%
%TD*%
G04 APERTURE END LIST*
D10*
%TO.P,R_Potentiometer,1,1*%
%TO.N,GND*%
X59000000Y-35000000D03*
D11*
%TO.P,R_Potentiometer,2,2*%
%TO.N,Net-(A2-A1)*%
X64080000Y-35000000D03*
%TO.P,R_Potentiometer,3,3*%
%TO.N,+5V*%
X69160000Y-35000000D03*
%TD*%
D10*
%TO.P,SSD1306,1,GND*%
%TO.N,GND*%
X35420000Y-35500000D03*
D11*
%TO.P,SSD1306,2,VCC*%
%TO.N,+5V*%
X40500000Y-35500000D03*
%TO.P,SSD1306,3,SCL*%
%TO.N,Net-(A2-A5)*%
X45580000Y-35500000D03*
%TO.P,SSD1306,4,SDA*%
%TO.N,Net-(A2-A4)*%
X50540000Y-35500000D03*
%TD*%
D12*
%TO.P,A2,1,D1/TX*%
%TO.N,unconnected-(A2-D1{slash}TX-Pad1)*%
X33840000Y-56740000D03*
D13*
%TO.P,A2,2,D0/RX*%
%TO.N,unconnected-(A2-D0{slash}RX-Pad2)*%
X36380000Y-56740000D03*
%TO.P,A2,3,~{RESET}*%
%TO.N,unconnected-(A2-~{RESET}-Pad3)*%
X38920000Y-56740000D03*
%TO.P,A2,4,GND*%
%TO.N,GND*%
X41460000Y-56740000D03*
%TO.P,A2,5,D2*%
%TO.N,unconnected-(A2-D2-Pad5)*%
X44000000Y-56740000D03*
%TO.P,A2,6,D3*%
%TO.N,unconnected-(A2-D3-Pad6)*%
X46540000Y-56740000D03*
%TO.P,A2,7,D4*%
%TO.N,unconnected-(A2-D4-Pad7)*%
X49080000Y-56740000D03*
%TO.P,A2,8,D5*%
%TO.N,unconnected-(A2-D5-Pad8)*%
X51620000Y-56740000D03*
%TO.P,A2,9,D6*%
%TO.N,unconnected-(A2-D6-Pad9)*%
X54160000Y-56740000D03*
%TO.P,A2,10,D7*%
%TO.N,unconnected-(A2-D7-Pad10)*%
X56700000Y-56740000D03*
%TO.P,A2,11,D8*%
%TO.N,unconnected-(A2-D8-Pad11)*%
X59240000Y-56740000D03*
%TO.P,A2,12,D9*%
%TO.N,unconnected-(A2-D9-Pad12)*%
X61780000Y-56740000D03*
%TO.P,A2,13,D10*%
%TO.N,unconnected-(A2-D10-Pad13)*%
X64320000Y-56740000D03*
%TO.P,A2,14,D11*%
%TO.N,unconnected-(A2-D11-Pad14)*%
X66860000Y-56740000D03*
%TO.P,A2,15,D12*%
%TO.N,unconnected-(A2-D12-Pad15)*%
X69400000Y-56740000D03*
%TO.P,A2,16,D13*%
%TO.N,unconnected-(A2-D13-Pad16)*%
X69400000Y-41500000D03*
%TO.P,A2,17,3V3*%
%TO.N,unconnected-(A2-3V3-Pad17)*%
X66860000Y-41500000D03*
%TO.P,A2,18,AREF*%
%TO.N,unconnected-(A2-AREF-Pad18)*%
X64320000Y-41500000D03*
%TO.P,A2,19,A0*%
%TO.N,unconnected-(A2-A0-Pad19)*%
X61780000Y-41500000D03*
%TO.P,A2,20,A1*%
%TO.N,Net-(A2-A1)*%
X59240000Y-41500000D03*
%TO.P,A2,21,A2*%
%TO.N,unconnected-(A2-A2-Pad21)*%
X56700000Y-41500000D03*
%TO.P,A2,22,A3*%
%TO.N,unconnected-(A2-A3-Pad22)*%
X54160000Y-41500000D03*
%TO.P,A2,23,A4*%
%TO.N,Net-(A2-A4)*%
X51620000Y-41500000D03*
%TO.P,A2,24,A5*%
%TO.N,Net-(A2-A5)*%
X49080000Y-41500000D03*
%TO.P,A2,25,A6*%
%TO.N,unconnected-(A2-A6-Pad25)*%
X46540000Y-41500000D03*
%TO.P,A2,26,A7*%
%TO.N,unconnected-(A2-A7-Pad26)*%
X44000000Y-41500000D03*
%TO.P,A2,27,+5V*%
%TO.N,+5V*%
X41460000Y-41500000D03*
%TO.P,A2,28,~{RESET}*%
%TO.N,unconnected-(A2-~{RESET}-Pad28)*%
X38920000Y-41500000D03*
%TO.P,A2,29,GND*%
%TO.N,GND*%
X36380000Y-41500000D03*
%TO.P,A2,30,VIN*%
%TO.N,unconnected-(A2-VIN-Pad30)*%
X33840000Y-41500000D03*
%TD*%
D14*
%TO.N,+5V*%
X69000000Y-39000000D03*
%TD*%
D15*
%TO.N,Net-(A2-A1)*%
X64080000Y-35000000D02*
X59240000Y-39840000D01*
X59240000Y-39840000D02*
X59240000Y-41000000D01*
%TO.N,Net-(A2-A4)*%
X50540000Y-35500000D02*
X50540000Y-40380000D01*
X50540000Y-40380000D02*
X51660000Y-41500000D01*
%TO.N,Net-(A2-A5)*%
X45580000Y-35500000D02*
X49120000Y-39040000D01*
X49120000Y-39040000D02*
X49120000Y-41500000D01*
D16*
%TO.N,+5V*%
X69160000Y-38840000D02*
X69000000Y-39000000D01*
X69160000Y-35500000D02*
X69160000Y-38840000D01*
X40500000Y-35500000D02*
X40500000Y-40500000D01*
X40500000Y-40500000D02*
X41500000Y-41500000D01*
%TD*%
%TA.AperFunction,Conductor*%
%TO.N,GND*%
G36*
X75942001Y-32898066D02*
G01*
X75988027Y-32950634D01*
X75999500Y-33002726D01*
X75999500Y-59875500D01*
X75979815Y-59942539D01*
X75927011Y-59988294D01*
X75875500Y-59999500D01*
X28624500Y-59999500D01*
X28557461Y-59979815D01*
X28511706Y-59927011D01*
X28500500Y-59875500D01*
X28500500Y-56650241D01*
X30159500Y-56650241D01*
X30159500Y-56829758D01*
X30187583Y-57007069D01*
X30243055Y-57177797D01*
X30272028Y-57234658D01*
X30320056Y-57328919D01*
X30324559Y-57337755D01*
X30430069Y-57482980D01*
X30557019Y-57609930D01*
X30692916Y-57708663D01*
X30702248Y-57715443D01*
X30862200Y-57796943D01*
X30862202Y-57796944D01*
X30947566Y-57824680D01*
X31032932Y-57852417D01*
X31210241Y-57880500D01*
X31210242Y-57880500D01*
X31389758Y-57880500D01*
X31389759Y-57880500D01*
X31567068Y-57852417D01*
X31737800Y-57796943D01*
X31897752Y-57715443D01*
X31979293Y-57656200D01*
X32042980Y-57609930D01*
X32042982Y-57609927D01*
X32042986Y-57609925D01*
X32169925Y-57482986D01*
X32169927Y-57482982D01*
X32169930Y-57482980D01*
X32275442Y-57337753D01*
X32279944Y-57328919D01*
X32305016Y-57279711D01*
X32352989Y-57228917D01*
X32420809Y-57212121D01*
X32486945Y-57234658D01*
X32530397Y-57289372D01*
X32539500Y-57336007D01*
X32539500Y-57587869D01*
X32539501Y-57587876D01*
X32545908Y-57647483D01*
X32596202Y-57782328D01*
X32596206Y-57782335D01*
X32682452Y-57897544D01*
X32682455Y-57897547D01*
X32797664Y-57983793D01*
X32797671Y-57983797D01*
X32932517Y-58034091D01*
X32932516Y-58034091D01*
X32939444Y-58034835D01*
X32992127Y-58040500D01*
X34687872Y-58040499D01*
X34747483Y-58034091D01*
X34882331Y-57983796D01*
X34997546Y-57897546D01*
X35083796Y-57782331D01*
X35134091Y-57647483D01*
X35138061Y-57610556D01*
X35164796Y-57546011D01*
X35222188Y-57506161D01*
X35292013Y-57503666D01*
X35352102Y-57539317D01*
X35361667Y-57550929D01*
X35388032Y-57587217D01*
X35532786Y-57731971D01*
X35687749Y-57844556D01*
X35698390Y-57852287D01*
X35787212Y-57897544D01*
X35880776Y-57945218D01*
X35880778Y-57945218D01*
X35880781Y-57945220D01*
X35985137Y-57979127D01*
X36075465Y-58008477D01*
X36176557Y-58024488D01*
X36277648Y-58040500D01*
X36277649Y-58040500D01*
X36482351Y-58040500D01*
X36482352Y-58040500D01*
X36684534Y-58008477D01*
X36879219Y-57945220D01*
X37061610Y-57852287D01*
X37157901Y-57782328D01*
X37227213Y-57731971D01*
X37227215Y-57731968D01*
X37227219Y-57731966D01*
X37371966Y-57587219D01*
X37371968Y-57587215D01*
X37371971Y-57587213D01*
X37492284Y-57421614D01*
X37492286Y-57421611D01*
X37492287Y-57421610D01*
X37539516Y-57328917D01*
X37587489Y-57278123D01*
X37655310Y-57261328D01*
X37721445Y-57283865D01*
X37760483Y-57328917D01*
X37764986Y-57337753D01*
X37807715Y-57421614D01*
X37928028Y-57587213D01*
X38072786Y-57731971D01*
X38227749Y-57844556D01*
X38238390Y-57852287D01*
X38327212Y-57897544D01*
X38420776Y-57945218D01*
X38420778Y-57945218D01*
X38420781Y-57945220D01*
X38525137Y-57979127D01*
X38615465Y-58008477D01*
X38716557Y-58024488D01*
X38817648Y-58040500D01*
X38817649Y-58040500D01*
X39022351Y-58040500D01*
X39022352Y-58040500D01*
X39224534Y-58008477D01*
X39419219Y-57945220D01*
X39601610Y-57852287D01*
X39697901Y-57782328D01*
X39767213Y-57731971D01*
X39767215Y-57731968D01*
X39767219Y-57731966D01*
X39911966Y-57587219D01*
X39911968Y-57587215D01*
X39911971Y-57587213D01*
X40032284Y-57421614D01*
X40032286Y-57421611D01*
X40032287Y-57421610D01*
X40079795Y-57328369D01*
X40127770Y-57277574D01*
X40195591Y-57260779D01*
X40261725Y-57283316D01*
X40300765Y-57328370D01*
X40348140Y-57421349D01*
X40468417Y-57586894D01*
X40468417Y-57586895D01*
X40613104Y-57731582D01*
X40778650Y-57851859D01*
X40960968Y-57944754D01*
X41155578Y-58007988D01*
X41210000Y-58016607D01*
X41210000Y-57173012D01*
X41267007Y-57205925D01*
X41394174Y-57240000D01*
X41525826Y-57240000D01*
X41652993Y-57205925D01*
X41710000Y-57173012D01*
X41710000Y-58016606D01*
X41764421Y-58007988D01*
X41959031Y-57944754D01*
X42141349Y-57851859D01*
X42306894Y-57731582D01*
X42306895Y-57731582D01*
X42451582Y-57586895D01*
X42451582Y-57586894D01*
X42571861Y-57421347D01*
X42619234Y-57328371D01*
X42667208Y-57277575D01*
X42735028Y-57260779D01*
X42801164Y-57283316D01*
X42840203Y-57328369D01*
X42887713Y-57421611D01*
X43008028Y-57587213D01*
X43152786Y-57731971D01*
X43307749Y-57844556D01*
X43318390Y-57852287D01*
X43407212Y-57897544D01*
X43500776Y-57945218D01*
X43500778Y-57945218D01*
X43500781Y-57945220D01*
X43605137Y-57979127D01*
X43695465Y-58008477D01*
X43796557Y-58024488D01*
X43897648Y-58040500D01*
X43897649Y-58040500D01*
X44102351Y-58040500D01*
X44102352Y-58040500D01*
X44304534Y-58008477D01*
X44499219Y-57945220D01*
X44681610Y-57852287D01*
X44777901Y-57782328D01*
X44847213Y-57731971D01*
X44847215Y-57731968D01*
X44847219Y-57731966D01*
X44991966Y-57587219D01*
X44991968Y-57587215D01*
X44991971Y-57587213D01*
X45112284Y-57421614D01*
X45112286Y-57421611D01*
X45112287Y-57421610D01*
X45159516Y-57328917D01*
X45207489Y-57278123D01*
X45275310Y-57261328D01*
X45341445Y-57283865D01*
X45380483Y-57328917D01*
X45384986Y-57337753D01*
X45427715Y-57421614D01*
X45548028Y-57587213D01*
X45692786Y-57731971D01*
X45847749Y-57844556D01*
X45858390Y-57852287D01*
X45947212Y-57897544D01*
X46040776Y-57945218D01*
X46040778Y-57945218D01*
X46040781Y-57945220D01*
X46145137Y-57979127D01*
X46235465Y-58008477D01*
X46336557Y-58024488D01*
X46437648Y-58040500D01*
X46437649Y-58040500D01*
X46642351Y-58040500D01*
X46642352Y-58040500D01*
X46844534Y-58008477D01*
X47039219Y-57945220D01*
X47221610Y-57852287D01*
X47317901Y-57782328D01*
X47387213Y-57731971D01*
X47387215Y-57731968D01*
X47387219Y-57731966D01*
X47531966Y-57587219D01*
X47531968Y-57587215D01*
X47531971Y-57587213D01*
X47652284Y-57421614D01*
X47652286Y-57421611D01*
X47652287Y-57421610D01*
X47699516Y-57328917D01*
X47747489Y-57278123D01*
X47815310Y-57261328D01*
X47881445Y-57283865D01*
X47920483Y-57328917D01*
X47924986Y-57337753D01*
X47967715Y-57421614D01*
X48088028Y-57587213D01*
X48232786Y-57731971D01*
X48387749Y-57844556D01*
X48398390Y-57852287D01*
X48487212Y-57897544D01*
X48580776Y-57945218D01*
X48580778Y-57945218D01*
X48580781Y-57945220D01*
X48685137Y-57979127D01*
X48775465Y-58008477D01*
X48876557Y-58024488D01*
X48977648Y-58040500D01*
X48977649Y-58040500D01*
X49182351Y-58040500D01*
X49182352Y-58040500D01*
X49384534Y-58008477D01*
X49579219Y-57945220D01*
X49761610Y-57852287D01*
X49857901Y-57782328D01*
X49927213Y-57731971D01*
X49927215Y-57731968D01*
X49927219Y-57731966D01*
X50071966Y-57587219D01*
X50071968Y-57587215D01*
X50071971Y-57587213D01*
X50192284Y-57421614D01*
X50192286Y-57421611D01*
X50192287Y-57421610D01*
X50239516Y-57328917D01*
X50287489Y-57278123D01*
X50355310Y-57261328D01*
X50421445Y-57283865D01*
X50460483Y-57328917D01*
X50464986Y-57337753D01*
X50507715Y-57421614D01*
X50628028Y-57587213D01*
X50772786Y-57731971D01*
X50927749Y-57844556D01*
X50938390Y-57852287D01*
X51027212Y-57897544D01*
X51120776Y-57945218D01*
X51120778Y-57945218D01*
X51120781Y-57945220D01*
X51225137Y-57979127D01*
X51315465Y-58008477D01*
X51416557Y-58024488D01*
X51517648Y-58040500D01*
X51517649Y-58040500D01*
X51722351Y-58040500D01*
X51722352Y-58040500D01*
X51924534Y-58008477D01*
X52119219Y-57945220D01*
X52301610Y-57852287D01*
X52397901Y-57782328D01*
X52467213Y-57731971D01*
X52467215Y-57731968D01*
X52467219Y-57731966D01*
X52611966Y-57587219D01*
X52611968Y-57587215D01*
X52611971Y-57587213D01*
X52732284Y-57421614D01*
X52732286Y-57421611D01*
X52732287Y-57421610D01*
X52779516Y-57328917D01*
X52827489Y-57278123D01*
X52895310Y-57261328D01*
X52961445Y-57283865D01*
X53000483Y-57328917D01*
X53004986Y-57337753D01*
X53047715Y-57421614D01*
X53168028Y-57587213D01*
X53312786Y-57731971D01*
X53467749Y-57844556D01*
X53478390Y-57852287D01*
X53567212Y-57897544D01*
X53660776Y-57945218D01*
X53660778Y-57945218D01*
X53660781Y-57945220D01*
X53765137Y-57979127D01*
X53855465Y-58008477D01*
X53956557Y-58024488D01*
X54057648Y-58040500D01*
X54057649Y-58040500D01*
X54262351Y-58040500D01*
X54262352Y-58040500D01*
X54464534Y-58008477D01*
X54659219Y-57945220D01*
X54841610Y-57852287D01*
X54937901Y-57782328D01*
X55007213Y-57731971D01*
X55007215Y-57731968D01*
X55007219Y-57731966D01*
X55151966Y-57587219D01*
X55151968Y-57587215D01*
X55151971Y-57587213D01*
X55272284Y-57421614D01*
X55272286Y-57421611D01*
X55272287Y-57421610D01*
X55319516Y-57328917D01*
X55367489Y-57278123D01*
X55435310Y-57261328D01*
X55501445Y-57283865D01*
X55540483Y-57328917D01*
X55544986Y-57337753D01*
X55587715Y-57421614D01*
X55708028Y-57587213D01*
X55852786Y-57731971D01*
X56007749Y-57844556D01*
X56018390Y-57852287D01*
X56107212Y-57897544D01*
X56200776Y-57945218D01*
X56200778Y-57945218D01*
X56200781Y-57945220D01*
X56305137Y-57979127D01*
X56395465Y-58008477D01*
X56496557Y-58024488D01*
X56597648Y-58040500D01*
X56597649Y-58040500D01*
X56802351Y-58040500D01*
X56802352Y-58040500D01*
X57004534Y-58008477D01*
X57199219Y-57945220D01*
X57381610Y-57852287D01*
X57477901Y-57782328D01*
X57547213Y-57731971D01*
X57547215Y-57731968D01*
X57547219Y-57731966D01*
X57691966Y-57587219D01*
X57691968Y-57587215D01*
X57691971Y-57587213D01*
X57812284Y-57421614D01*
X57812286Y-57421611D01*
X57812287Y-57421610D01*
X57859516Y-57328917D01*
X57907489Y-57278123D01*
X57975310Y-57261328D01*
X58041445Y-57283865D01*
X58080483Y-57328917D01*
X58084986Y-57337753D01*
X58127715Y-57421614D01*
X58248028Y-57587213D01*
X58392786Y-57731971D01*
X58547749Y-57844556D01*
X58558390Y-57852287D01*
X58647212Y-57897544D01*
X58740776Y-57945218D01*
X58740778Y-57945218D01*
X58740781Y-57945220D01*
X58845137Y-57979127D01*
X58935465Y-58008477D01*
X59036557Y-58024488D01*
X59137648Y-58040500D01*
X59137649Y-58040500D01*
X59342351Y-58040500D01*
X59342352Y-58040500D01*
X59544534Y-58008477D01*
X59739219Y-57945220D01*
X59921610Y-57852287D01*
X60017901Y-57782328D01*
X60087213Y-57731971D01*
X60087215Y-57731968D01*
X60087219Y-57731966D01*
X60231966Y-57587219D01*
X60231968Y-57587215D01*
X60231971Y-57587213D01*
X60352284Y-57421614D01*
X60352286Y-57421611D01*
X60352287Y-57421610D01*
X60399516Y-57328917D01*
X60447489Y-57278123D01*
X60515310Y-57261328D01*
X60581445Y-57283865D01*
X60620483Y-57328917D01*
X60624986Y-57337753D01*
X60667715Y-57421614D01*
X60788028Y-57587213D01*
X60932786Y-57731971D01*
X61087749Y-57844556D01*
X61098390Y-57852287D01*
X61187212Y-57897544D01*
X61280776Y-57945218D01*
X61280778Y-57945218D01*
X61280781Y-57945220D01*
X61385137Y-57979127D01*
X61475465Y-58008477D01*
X61576557Y-58024488D01*
X61677648Y-58040500D01*
X61677649Y-58040500D01*
X61882351Y-58040500D01*
X61882352Y-58040500D01*
X62084534Y-58008477D01*
X62279219Y-57945220D01*
X62461610Y-57852287D01*
X62557901Y-57782328D01*
X62627213Y-57731971D01*
X62627215Y-57731968D01*
X62627219Y-57731966D01*
X62771966Y-57587219D01*
X62771968Y-57587215D01*
X62771971Y-57587213D01*
X62892284Y-57421614D01*
X62892286Y-57421611D01*
X62892287Y-57421610D01*
X62939516Y-57328917D01*
X62987489Y-57278123D01*
X63055310Y-57261328D01*
X63121445Y-57283865D01*
X63160483Y-57328917D01*
X63164986Y-57337753D01*
X63207715Y-57421614D01*
X63328028Y-57587213D01*
X63472786Y-57731971D01*
X63627749Y-57844556D01*
X63638390Y-57852287D01*
X63727212Y-57897544D01*
X63820776Y-57945218D01*
X63820778Y-57945218D01*
X63820781Y-57945220D01*
X63925137Y-57979127D01*
X64015465Y-58008477D01*
X64116557Y-58024488D01*
X64217648Y-58040500D01*
X64217649Y-58040500D01*
X64422351Y-58040500D01*
X64422352Y-58040500D01*
X64624534Y-58008477D01*
X64819219Y-57945220D01*
X65001610Y-57852287D01*
X65097901Y-57782328D01*
X65167213Y-57731971D01*
X65167215Y-57731968D01*
X65167219Y-57731966D01*
X65311966Y-57587219D01*
X65311968Y-57587215D01*
X65311971Y-57587213D01*
X65432284Y-57421614D01*
X65432286Y-57421611D01*
X65432287Y-57421610D01*
X65479516Y-57328917D01*
X65527489Y-57278123D01*
X65595310Y-57261328D01*
X65661445Y-57283865D01*
X65700483Y-57328917D01*
X65704986Y-57337753D01*
X65747715Y-57421614D01*
X65868028Y-57587213D01*
X66012786Y-57731971D01*
X66167749Y-57844556D01*
X66178390Y-57852287D01*
X66267212Y-57897544D01*
X66360776Y-57945218D01*
X66360778Y-57945218D01*
X66360781Y-57945220D01*
X66465137Y-57979127D01*
X66555465Y-58008477D01*
X66656557Y-58024488D01*
X66757648Y-58040500D01*
X66757649Y-58040500D01*
X66962351Y-58040500D01*
X66962352Y-58040500D01*
X67164534Y-58008477D01*
X67359219Y-57945220D01*
X67541610Y-57852287D01*
X67637901Y-57782328D01*
X67707213Y-57731971D01*
X67707215Y-57731968D01*
X67707219Y-57731966D01*
X67851966Y-57587219D01*
X67851968Y-57587215D01*
X67851971Y-57587213D01*
X67972284Y-57421614D01*
X67972286Y-57421611D01*
X67972287Y-57421610D01*
X68019516Y-57328917D01*
X68067489Y-57278123D01*
X68135310Y-57261328D01*
X68201445Y-57283865D01*
X68240483Y-57328917D01*
X68244986Y-57337753D01*
X68287715Y-57421614D01*
X68408028Y-57587213D01*
X68552786Y-57731971D01*
X68707749Y-57844556D01*
X68718390Y-57852287D01*
X68807212Y-57897544D01*
X68900776Y-57945218D01*
X68900778Y-57945218D01*
X68900781Y-57945220D01*
X69005137Y-57979127D01*
X69095465Y-58008477D01*
X69196557Y-58024488D01*
X69297648Y-58040500D01*
X69297649Y-58040500D01*
X69502351Y-58040500D01*
X69502352Y-58040500D01*
X69704534Y-58008477D01*
X69899219Y-57945220D01*
X70081610Y-57852287D01*
X70177901Y-57782328D01*
X70247213Y-57731971D01*
X70247215Y-57731968D01*
X70247219Y-57731966D01*
X70391966Y-57587219D01*
X70391968Y-57587215D01*
X70391971Y-57587213D01*
X70467699Y-57482980D01*
X70512287Y-57421610D01*
X70605220Y-57239219D01*
X70636185Y-57143915D01*
X70675622Y-57086242D01*
X70739981Y-57059043D01*
X70808827Y-57070958D01*
X70860303Y-57118202D01*
X70872047Y-57143917D01*
X70883055Y-57177797D01*
X70912028Y-57234658D01*
X70960056Y-57328919D01*
X70964559Y-57337755D01*
X71070069Y-57482980D01*
X71197019Y-57609930D01*
X71332916Y-57708663D01*
X71342248Y-57715443D01*
X71502200Y-57796943D01*
X71502202Y-57796944D01*
X71587566Y-57824680D01*
X71672932Y-57852417D01*
X71850241Y-57880500D01*
X71850242Y-57880500D01*
X72029758Y-57880500D01*
X72029759Y-57880500D01*
X72207068Y-57852417D01*
X72377800Y-57796943D01*
X72537752Y-57715443D01*
X72619293Y-57656200D01*
X72682980Y-57609930D01*
X72682982Y-57609927D01*
X72682986Y-57609925D01*
X72809925Y-57482986D01*
X72809927Y-57482982D01*
X72809930Y-57482980D01*
X72856200Y-57419293D01*
X72915443Y-57337752D01*
X72996943Y-57177800D01*
X73052417Y-57007068D01*
X73080500Y-56829759D01*
X73080500Y-56650241D01*
X73052417Y-56472932D01*
X73016307Y-56361796D01*
X72996944Y-56302202D01*
X72996943Y-56302200D01*
X72915443Y-56142248D01*
X72908663Y-56132916D01*
X72809930Y-55997019D01*
X72682980Y-55870069D01*
X72537755Y-55764559D01*
X72537754Y-55764558D01*
X72537752Y-55764557D01*
X72457776Y-55723807D01*
X72377797Y-55683055D01*
X72207069Y-55627583D01*
X72118413Y-55613541D01*
X72029759Y-55599500D01*
X71850241Y-55599500D01*
X71791138Y-55608861D01*
X71672930Y-55627583D01*
X71502202Y-55683055D01*
X71342244Y-55764559D01*
X71197019Y-55870069D01*
X71070069Y-55997019D01*
X70964559Y-56142244D01*
X70883056Y-56302201D01*
X70872047Y-56336083D01*
X70832609Y-56393758D01*
X70768250Y-56420956D01*
X70699404Y-56409041D01*
X70647928Y-56361796D01*
X70636185Y-56336083D01*
X70605220Y-56240781D01*
X70512287Y-56058390D01*
X70467699Y-55997019D01*
X70391971Y-55892786D01*
X70247213Y-55748028D01*
X70081613Y-55627715D01*
X70081612Y-55627714D01*
X70081610Y-55627713D01*
X70024653Y-55598691D01*
X69899223Y-55534781D01*
X69704534Y-55471522D01*
X69529995Y-55443878D01*
X69502352Y-55439500D01*
X69297648Y-55439500D01*
X69273329Y-55443351D01*
X69095465Y-55471522D01*
X68900776Y-55534781D01*
X68718386Y-55627715D01*
X68552786Y-55748028D01*
X68408028Y-55892786D01*
X68287715Y-56058386D01*
X68240485Y-56151080D01*
X68192510Y-56201876D01*
X68124689Y-56218671D01*
X68058554Y-56196134D01*
X68019515Y-56151080D01*
X67972419Y-56058650D01*
X67972287Y-56058390D01*
X67927699Y-55997019D01*
X67851971Y-55892786D01*
X67707213Y-55748028D01*
X67541613Y-55627715D01*
X67541612Y-55627714D01*
X67541610Y-55627713D01*
X67484653Y-55598691D01*
X67359223Y-55534781D01*
X67164534Y-55471522D01*
X66989995Y-55443878D01*
X66962352Y-55439500D01*
X66757648Y-55439500D01*
X66733329Y-55443351D01*
X66555465Y-55471522D01*
X66360776Y-55534781D01*
X66178386Y-55627715D01*
X66012786Y-55748028D01*
X65868028Y-55892786D01*
X65747715Y-56058386D01*
X65700485Y-56151080D01*
X65652510Y-56201876D01*
X65584689Y-56218671D01*
X65518554Y-56196134D01*
X65479515Y-56151080D01*
X65432419Y-56058650D01*
X65432287Y-56058390D01*
X65387699Y-55997019D01*
X65311971Y-55892786D01*
X65167213Y-55748028D01*
X65001613Y-55627715D01*
X65001612Y-55627714D01*
X65001610Y-55627713D01*
X64944653Y-55598691D01*
X64819223Y-55534781D01*
X64624534Y-55471522D01*
X64449995Y-55443878D01*
X64422352Y-55439500D01*
X64217648Y-55439500D01*
X64193329Y-55443351D01*
X64015465Y-55471522D01*
X63820776Y-55534781D01*
X63638386Y-55627715D01*
X63472786Y-55748028D01*
X63328028Y-55892786D01*
X63207715Y-56058386D01*
X63160485Y-56151080D01*
X63112510Y-56201876D01*
X63044689Y-56218671D01*
X62978554Y-56196134D01*
X62939515Y-56151080D01*
X62892419Y-56058650D01*
X62892287Y-56058390D01*
X62847699Y-55997019D01*
X62771971Y-55892786D01*
X62627213Y-55748028D01*
X62461613Y-55627715D01*
X62461612Y-55627714D01*
X62461610Y-55627713D01*
X62404653Y-55598691D01*
X62279223Y-55534781D01*
X62084534Y-55471522D01*
X61909995Y-55443878D01*
X61882352Y-55439500D01*
X61677648Y-55439500D01*
X61653329Y-55443351D01*
X61475465Y-55471522D01*
X61280776Y-55534781D01*
X61098386Y-55627715D01*
X60932786Y-55748028D01*
X60788028Y-55892786D01*
X60667715Y-56058386D01*
X60620485Y-56151080D01*
X60572510Y-56201876D01*
X60504689Y-56218671D01*
X60438554Y-56196134D01*
X60399515Y-56151080D01*
X60352419Y-56058650D01*
X60352287Y-56058390D01*
X60307699Y-55997019D01*
X60231971Y-55892786D01*
X60087213Y-55748028D01*
X59921613Y-55627715D01*
X59921612Y-55627714D01*
X59921610Y-55627713D01*
X59864653Y-55598691D01*
X59739223Y-55534781D01*
X59544534Y-55471522D01*
X59369995Y-55443878D01*
X59342352Y-55439500D01*
X59137648Y-55439500D01*
X59113329Y-55443351D01*
X58935465Y-55471522D01*
X58740776Y-55534781D01*
X58558386Y-55627715D01*
X58392786Y-55748028D01*
X58248028Y-55892786D01*
X58127715Y-56058386D01*
X58080485Y-56151080D01*
X58032510Y-56201876D01*
X57964689Y-56218671D01*
X57898554Y-56196134D01*
X57859515Y-56151080D01*
X57812419Y-56058650D01*
X57812287Y-56058390D01*
X57767699Y-55997019D01*
X57691971Y-55892786D01*
X57547213Y-55748028D01*
X57381613Y-55627715D01*
X57381612Y-55627714D01*
X57381610Y-55627713D01*
X57324653Y-55598691D01*
X57199223Y-55534781D01*
X57004534Y-55471522D01*
X56829995Y-55443878D01*
X56802352Y-55439500D01*
X56597648Y-55439500D01*
X56573329Y-55443351D01*
X56395465Y-55471522D01*
X56200776Y-55534781D01*
X56018386Y-55627715D01*
X55852786Y-55748028D01*
X55708028Y-55892786D01*
X55587715Y-56058386D01*
X55540485Y-56151080D01*
X55492510Y-56201876D01*
X55424689Y-56218671D01*
X55358554Y-56196134D01*
X55319515Y-56151080D01*
X55272419Y-56058650D01*
X55272287Y-56058390D01*
X55227699Y-55997019D01*
X55151971Y-55892786D01*
X55007213Y-55748028D01*
X54841613Y-55627715D01*
X54841612Y-55627714D01*
X54841610Y-55627713D01*
X54784653Y-55598691D01*
X54659223Y-55534781D01*
X54464534Y-55471522D01*
X54289995Y-55443878D01*
X54262352Y-55439500D01*
X54057648Y-55439500D01*
X54033329Y-55443351D01*
X53855465Y-55471522D01*
X53660776Y-55534781D01*
X53478386Y-55627715D01*
X53312786Y-55748028D01*
X53168028Y-55892786D01*
X53047715Y-56058386D01*
X53000485Y-56151080D01*
X52952510Y-56201876D01*
X52884689Y-56218671D01*
X52818554Y-56196134D01*
X52779515Y-56151080D01*
X52732419Y-56058650D01*
X52732287Y-56058390D01*
X52687699Y-55997019D01*
X52611971Y-55892786D01*
X52467213Y-55748028D01*
X52301613Y-55627715D01*
X52301612Y-55627714D01*
X52301610Y-55627713D01*
X52244653Y-55598691D01*
X52119223Y-55534781D01*
X51924534Y-55471522D01*
X51749995Y-55443878D01*
X51722352Y-55439500D01*
X51517648Y-55439500D01*
X51493329Y-55443351D01*
X51315465Y-55471522D01*
X51120776Y-55534781D01*
X50938386Y-55627715D01*
X50772786Y-55748028D01*
X50628028Y-55892786D01*
X50507715Y-56058386D01*
X50460485Y-56151080D01*
X50412510Y-56201876D01*
X50344689Y-56218671D01*
X50278554Y-56196134D01*
X50239515Y-56151080D01*
X50192419Y-56058650D01*
X50192287Y-56058390D01*
X50147699Y-55997019D01*
X50071971Y-55892786D01*
X49927213Y-55748028D01*
X49761613Y-55627715D01*
X49761612Y-55627714D01*
X49761610Y-55627713D01*
X49704653Y-55598691D01*
X49579223Y-55534781D01*
X49384534Y-55471522D01*
X49209995Y-55443878D01*
X49182352Y-55439500D01*
X48977648Y-55439500D01*
X48953329Y-55443351D01*
X48775465Y-55471522D01*
X48580776Y-55534781D01*
X48398386Y-55627715D01*
X48232786Y-55748028D01*
X48088028Y-55892786D01*
X47967715Y-56058386D01*
X47920485Y-56151080D01*
X47872510Y-56201876D01*
X47804689Y-56218671D01*
X47738554Y-56196134D01*
X47699515Y-56151080D01*
X47652419Y-56058650D01*
X47652287Y-56058390D01*
X47607699Y-55997019D01*
X47531971Y-55892786D01*
X47387213Y-55748028D01*
X47221613Y-55627715D01*
X47221612Y-55627714D01*
X47221610Y-55627713D01*
X47164653Y-55598691D01*
X47039223Y-55534781D01*
X46844534Y-55471522D01*
X46669995Y-55443878D01*
X46642352Y-55439500D01*
X46437648Y-55439500D01*
X46413329Y-55443351D01*
X46235465Y-55471522D01*
X46040776Y-55534781D01*
X45858386Y-55627715D01*
X45692786Y-55748028D01*
X45548028Y-55892786D01*
X45427715Y-56058386D01*
X45380485Y-56151080D01*
X45332510Y-56201876D01*
X45264689Y-56218671D01*
X45198554Y-56196134D01*
X45159515Y-56151080D01*
X45112419Y-56058650D01*
X45112287Y-56058390D01*
X45067699Y-55997019D01*
X44991971Y-55892786D01*
X44847213Y-55748028D01*
X44681613Y-55627715D01*
X44681612Y-55627714D01*
X44681610Y-55627713D01*
X44624653Y-55598691D01*
X44499223Y-55534781D01*
X44304534Y-55471522D01*
X44129995Y-55443878D01*
X44102352Y-55439500D01*
X43897648Y-55439500D01*
X43873329Y-55443351D01*
X43695465Y-55471522D01*
X43500776Y-55534781D01*
X43318386Y-55627715D01*
X43152786Y-55748028D01*
X43008028Y-55892786D01*
X42887713Y-56058388D01*
X42840203Y-56151630D01*
X42792228Y-56202426D01*
X42724407Y-56219220D01*
X42658272Y-56196682D01*
X42619234Y-56151628D01*
X42571861Y-56058652D01*
X42451582Y-55893105D01*
X42451582Y-55893104D01*
X42306895Y-55748417D01*
X42141349Y-55628140D01*
X41959029Y-55535244D01*
X41764413Y-55472009D01*
X41710000Y-55463390D01*
X41710000Y-56306988D01*
X41652993Y-56274075D01*
X41525826Y-56240000D01*
X41394174Y-56240000D01*
X41267007Y-56274075D01*
X41210000Y-56306988D01*
X41210000Y-55463390D01*
X41155586Y-55472009D01*
X40960970Y-55535244D01*
X40778650Y-55628140D01*
X40613105Y-55748417D01*
X40613104Y-55748417D01*
X40468417Y-55893104D01*
X40468417Y-55893105D01*
X40348140Y-56058650D01*
X40300765Y-56151629D01*
X40252790Y-56202425D01*
X40184969Y-56219220D01*
X40118834Y-56196682D01*
X40079795Y-56151629D01*
X40032419Y-56058650D01*
X40032287Y-56058390D01*
X39987699Y-55997019D01*
X39911971Y-55892786D01*
X39767213Y-55748028D01*
X39601613Y-55627715D01*
X39601612Y-55627714D01*
X39601610Y-55627713D01*
X39544653Y-55598691D01*
X39419223Y-55534781D01*
X39224534Y-55471522D01*
X39049995Y-55443878D01*
X39022352Y-55439500D01*
X38817648Y-55439500D01*
X38793329Y-55443351D01*
X38615465Y-55471522D01*
X38420776Y-55534781D01*
X38238386Y-55627715D01*
X38072786Y-55748028D01*
X37928028Y-55892786D01*
X37807715Y-56058386D01*
X37760485Y-56151080D01*
X37712510Y-56201876D01*
X37644689Y-56218671D01*
X37578554Y-56196134D01*
X37539515Y-56151080D01*
X37492419Y-56058650D01*
X37492287Y-56058390D01*
X37447699Y-55997019D01*
X37371971Y-55892786D01*
X37227213Y-55748028D01*
X37061613Y-55627715D01*
X37061612Y-55627714D01*
X37061610Y-55627713D01*
X37004653Y-55598691D01*
X36879223Y-55534781D01*
X36684534Y-55471522D01*
X36509995Y-55443878D01*
X36482352Y-55439500D01*
X36277648Y-55439500D01*
X36253329Y-55443351D01*
X36075465Y-55471522D01*
X35880776Y-55534781D01*
X35698386Y-55627715D01*
X35532786Y-55748028D01*
X35388032Y-55892782D01*
X35361668Y-55929070D01*
X35306338Y-55971735D01*
X35236724Y-55977714D01*
X35174929Y-55945108D01*
X35140572Y-55884269D01*
X35138060Y-55869438D01*
X35137640Y-55865533D01*
X35134091Y-55832517D01*
X35083796Y-55697669D01*
X35083795Y-55697668D01*
X35083793Y-55697664D01*
X34997547Y-55582455D01*
X34997544Y-55582452D01*
X34882335Y-55496206D01*
X34882328Y-55496202D01*
X34747482Y-55445908D01*
X34747483Y-55445908D01*
X34687883Y-55439501D01*
X34687881Y-55439500D01*
X34687873Y-55439500D01*
X34687864Y-55439500D01*
X32992129Y-55439500D01*
X32992123Y-55439501D01*
X32932516Y-55445908D01*
X32797671Y-55496202D01*
X32797664Y-55496206D01*
X32682455Y-55582452D01*
X32682452Y-55582455D01*
X32596206Y-55697664D01*
X32596202Y-55697671D01*
X32545908Y-55832517D01*
X32539501Y-55892116D01*
X32539500Y-55892135D01*
X32539500Y-56143991D01*
X32519815Y-56211030D01*
X32467011Y-56256785D01*
X32397853Y-56266729D01*
X32334297Y-56237704D01*
X32305015Y-56200286D01*
X32280223Y-56151630D01*
X32275443Y-56142248D01*
X32268663Y-56132916D01*
X32169930Y-55997019D01*
X32042980Y-55870069D01*
X31897755Y-55764559D01*
X31897754Y-55764558D01*
X31897752Y-55764557D01*
X31817776Y-55723807D01*
X31737797Y-55683055D01*
X31567069Y-55627583D01*
X31478413Y-55613541D01*
X31389759Y-55599500D01*
X31210241Y-55599500D01*
X31151138Y-55608861D01*
X31032930Y-55627583D01*
X30862202Y-55683055D01*
X30702244Y-55764559D01*
X30557019Y-55870069D01*
X30430069Y-55997019D01*
X30324559Y-56142244D01*
X30243055Y-56302202D01*
X30187583Y-56472930D01*
X30159500Y-56650241D01*
X28500500Y-56650241D01*
X28500500Y-41410241D01*
X30159500Y-41410241D01*
X30159500Y-41589758D01*
X30187583Y-41767069D01*
X30243055Y-41937797D01*
X30243057Y-41937800D01*
X30320056Y-42088919D01*
X30324559Y-42097755D01*
X30430069Y-42242980D01*
X30557019Y-42369930D01*
X30692916Y-42468663D01*
X30702248Y-42475443D01*
X30862200Y-42556943D01*
X30862202Y-42556944D01*
X30947566Y-42584680D01*
X31032932Y-42612417D01*
X31210241Y-42640500D01*
X31210242Y-42640500D01*
X31389758Y-42640500D01*
X31389759Y-42640500D01*
X31567068Y-42612417D01*
X31737800Y-42556943D01*
X31897752Y-42475443D01*
X31979293Y-42416200D01*
X32042980Y-42369930D01*
X32042982Y-42369927D01*
X32042986Y-42369925D01*
X32169925Y-42242986D01*
X32169927Y-42242982D01*
X32169930Y-42242980D01*
X32216200Y-42179293D01*
X32275443Y-42097752D01*
X32356943Y-41937800D01*
X32367953Y-41903916D01*
X32407387Y-41846243D01*
X32471745Y-41819044D01*
X32540592Y-41830956D01*
X32592069Y-41878199D01*
X32603814Y-41903916D01*
X32634781Y-41999223D01*
X32727715Y-42181613D01*
X32848028Y-42347213D01*
X32992786Y-42491971D01*
X33147749Y-42604556D01*
X33158390Y-42612287D01*
X33274607Y-42671503D01*
X33340776Y-42705218D01*
X33340778Y-42705218D01*
X33340781Y-42705220D01*
X33445137Y-42739127D01*
X33535465Y-42768477D01*
X33636557Y-42784488D01*
X33737648Y-42800500D01*
X33737649Y-42800500D01*
X33942351Y-42800500D01*
X33942352Y-42800500D01*
X34144534Y-42768477D01*
X34339219Y-42705220D01*
X34521610Y-42612287D01*
X34614590Y-42544732D01*
X34687213Y-42491971D01*
X34687215Y-42491968D01*
X34687219Y-42491966D01*
X34831966Y-42347219D01*
X34831968Y-42347215D01*
X34831971Y-42347213D01*
X34952284Y-42181614D01*
X34952286Y-42181611D01*
X34952287Y-42181610D01*
X34999795Y-42088369D01*
X35047770Y-42037574D01*
X35115591Y-42020779D01*
X35181725Y-42043316D01*
X35220765Y-42088370D01*
X35268140Y-42181349D01*
X35388417Y-42346894D01*
X35388417Y-42346895D01*
X35533104Y-42491582D01*
X35698650Y-42611859D01*
X35880968Y-42704754D01*
X36075578Y-42767988D01*
X36130000Y-42776607D01*
X36130000Y-41933012D01*
X36187007Y-41965925D01*
X36314174Y-42000000D01*
X36445826Y-42000000D01*
X36572993Y-41965925D01*
X36630000Y-41933012D01*
X36630000Y-42776606D01*
X36684421Y-42767988D01*
X36879031Y-42704754D01*
X37061349Y-42611859D01*
X37226894Y-42491582D01*
X37226895Y-42491582D01*
X37371582Y-42346895D01*
X37371582Y-42346894D01*
X37491861Y-42181347D01*
X37539234Y-42088371D01*
X37587208Y-42037575D01*
X37655028Y-42020779D01*
X37721164Y-42043316D01*
X37760203Y-42088369D01*
X37807713Y-42181611D01*
X37928028Y-42347213D01*
X38072786Y-42491971D01*
X38227749Y-42604556D01*
X38238390Y-42612287D01*
X38354607Y-42671503D01*
X38420776Y-42705218D01*
X38420778Y-42705218D01*
X38420781Y-42705220D01*
X38525137Y-42739127D01*
X38615465Y-42768477D01*
X38716557Y-42784488D01*
X38817648Y-42800500D01*
X38817649Y-42800500D01*
X39022351Y-42800500D01*
X39022352Y-42800500D01*
X39224534Y-42768477D01*
X39419219Y-42705220D01*
X39601610Y-42612287D01*
X39694590Y-42544732D01*
X39767213Y-42491971D01*
X39767215Y-42491968D01*
X39767219Y-42491966D01*
X39911966Y-42347219D01*
X39911968Y-42347215D01*
X39911971Y-42347213D01*
X40032284Y-42181614D01*
X40032286Y-42181611D01*
X40032287Y-42181610D01*
X40079516Y-42088917D01*
X40127489Y-42038123D01*
X40195310Y-42021328D01*
X40261445Y-42043865D01*
X40300483Y-42088917D01*
X40304987Y-42097755D01*
X40347715Y-42181614D01*
X40468028Y-42347213D01*
X40612786Y-42491971D01*
X40767749Y-42604556D01*
X40778390Y-42612287D01*
X40894607Y-42671503D01*
X40960776Y-42705218D01*
X40960778Y-42705218D01*
X40960781Y-42705220D01*
X41065137Y-42739127D01*
X41155465Y-42768477D01*
X41256557Y-42784488D01*
X41357648Y-42800500D01*
X41357649Y-42800500D01*
X41562351Y-42800500D01*
X41562352Y-42800500D01*
X41764534Y-42768477D01*
X41959219Y-42705220D01*
X42141610Y-42612287D01*
X42234590Y-42544732D01*
X42307213Y-42491971D01*
X42307215Y-42491968D01*
X42307219Y-42491966D01*
X42451966Y-42347219D01*
X42451968Y-42347215D01*
X42451971Y-42347213D01*
X42572284Y-42181614D01*
X42572286Y-42181611D01*
X42572287Y-42181610D01*
X42619516Y-42088917D01*
X42667489Y-42038123D01*
X42735310Y-42021328D01*
X42801445Y-42043865D01*
X42840483Y-42088917D01*
X42844987Y-42097755D01*
X42887715Y-42181614D01*
X43008028Y-42347213D01*
X43152786Y-42491971D01*
X43307749Y-42604556D01*
X43318390Y-42612287D01*
X43434607Y-42671503D01*
X43500776Y-42705218D01*
X43500778Y-42705218D01*
X43500781Y-42705220D01*
X43605137Y-42739127D01*
X43695465Y-42768477D01*
X43796557Y-42784488D01*
X43897648Y-42800500D01*
X43897649Y-42800500D01*
X44102351Y-42800500D01*
X44102352Y-42800500D01*
X44304534Y-42768477D01*
X44499219Y-42705220D01*
X44681610Y-42612287D01*
X44774590Y-42544732D01*
X44847213Y-42491971D01*
X44847215Y-42491968D01*
X44847219Y-42491966D01*
X44991966Y-42347219D01*
X44991968Y-42347215D01*
X44991971Y-42347213D01*
X45112284Y-42181614D01*
X45112286Y-42181611D01*
X45112287Y-42181610D01*
X45159516Y-42088917D01*
X45207489Y-42038123D01*
X45275310Y-42021328D01*
X45341445Y-42043865D01*
X45380483Y-42088917D01*
X45384987Y-42097755D01*
X45427715Y-42181614D01*
X45548028Y-42347213D01*
X45692786Y-42491971D01*
X45847749Y-42604556D01*
X45858390Y-42612287D01*
X45974607Y-42671503D01*
X46040776Y-42705218D01*
X46040778Y-42705218D01*
X46040781Y-42705220D01*
X46145137Y-42739127D01*
X46235465Y-42768477D01*
X46336557Y-42784488D01*
X46437648Y-42800500D01*
X46437649Y-42800500D01*
X46642351Y-42800500D01*
X46642352Y-42800500D01*
X46844534Y-42768477D01*
X47039219Y-42705220D01*
X47221610Y-42612287D01*
X47314590Y-42544732D01*
X47387213Y-42491971D01*
X47387215Y-42491968D01*
X47387219Y-42491966D01*
X47531966Y-42347219D01*
X47531968Y-42347215D01*
X47531971Y-42347213D01*
X47652284Y-42181614D01*
X47652286Y-42181611D01*
X47652287Y-42181610D01*
X47699516Y-42088917D01*
X47747489Y-42038123D01*
X47815310Y-42021328D01*
X47881445Y-42043865D01*
X47920483Y-42088917D01*
X47924987Y-42097755D01*
X47967715Y-42181614D01*
X48088028Y-42347213D01*
X48232786Y-42491971D01*
X48387749Y-42604556D01*
X48398390Y-42612287D01*
X48514607Y-42671503D01*
X48580776Y-42705218D01*
X48580778Y-42705218D01*
X48580781Y-42705220D01*
X48685137Y-42739127D01*
X48775465Y-42768477D01*
X48876557Y-42784488D01*
X48977648Y-42800500D01*
X48977649Y-42800500D01*
X49182351Y-42800500D01*
X49182352Y-42800500D01*
X49384534Y-42768477D01*
X49579219Y-42705220D01*
X49761610Y-42612287D01*
X49854590Y-42544732D01*
X49927213Y-42491971D01*
X49927215Y-42491968D01*
X49927219Y-42491966D01*
X50071966Y-42347219D01*
X50071968Y-42347215D01*
X50071971Y-42347213D01*
X50192284Y-42181614D01*
X50192286Y-42181611D01*
X50192287Y-42181610D01*
X50239516Y-42088917D01*
X50287489Y-42038123D01*
X50355310Y-42021328D01*
X50421445Y-42043865D01*
X50460483Y-42088917D01*
X50464987Y-42097755D01*
X50507715Y-42181614D01*
X50628028Y-42347213D01*
X50772786Y-42491971D01*
X50927749Y-42604556D01*
X50938390Y-42612287D01*
X51054607Y-42671503D01*
X51120776Y-42705218D01*
X51120778Y-42705218D01*
X51120781Y-42705220D01*
X51225137Y-42739127D01*
X51315465Y-42768477D01*
X51416557Y-42784488D01*
X51517648Y-42800500D01*
X51517649Y-42800500D01*
X51722351Y-42800500D01*
X51722352Y-42800500D01*
X51924534Y-42768477D01*
X52119219Y-42705220D01*
X52301610Y-42612287D01*
X52394590Y-42544732D01*
X52467213Y-42491971D01*
X52467215Y-42491968D01*
X52467219Y-42491966D01*
X52611966Y-42347219D01*
X52611968Y-42347215D01*
X52611971Y-42347213D01*
X52732284Y-42181614D01*
X52732286Y-42181611D01*
X52732287Y-42181610D01*
X52779516Y-42088917D01*
X52827489Y-42038123D01*
X52895310Y-42021328D01*
X52961445Y-42043865D01*
X53000483Y-42088917D01*
X53004987Y-42097755D01*
X53047715Y-42181614D01*
X53168028Y-42347213D01*
X53312786Y-42491971D01*
X53467749Y-42604556D01*
X53478390Y-42612287D01*
X53594607Y-42671503D01*
X53660776Y-42705218D01*
X53660778Y-42705218D01*
X53660781Y-42705220D01*
X53765137Y-42739127D01*
X53855465Y-42768477D01*
X53956557Y-42784488D01*
X54057648Y-42800500D01*
X54057649Y-42800500D01*
X54262351Y-42800500D01*
X54262352Y-42800500D01*
X54464534Y-42768477D01*
X54659219Y-42705220D01*
X54841610Y-42612287D01*
X54934590Y-42544732D01*
X55007213Y-42491971D01*
X55007215Y-42491968D01*
X55007219Y-42491966D01*
X55151966Y-42347219D01*
X55151968Y-42347215D01*
X55151971Y-42347213D01*
X55272284Y-42181614D01*
X55272286Y-42181611D01*
X55272287Y-42181610D01*
X55319516Y-42088917D01*
X55367489Y-42038123D01*
X55435310Y-42021328D01*
X55501445Y-42043865D01*
X55540483Y-42088917D01*
X55544987Y-42097755D01*
X55587715Y-42181614D01*
X55708028Y-42347213D01*
X55852786Y-42491971D01*
X56007749Y-42604556D01*
X56018390Y-42612287D01*
X56134607Y-42671503D01*
X56200776Y-42705218D01*
X56200778Y-42705218D01*
X56200781Y-42705220D01*
X56305137Y-42739127D01*
X56395465Y-42768477D01*
X56496557Y-42784488D01*
X56597648Y-42800500D01*
X56597649Y-42800500D01*
X56802351Y-42800500D01*
X56802352Y-42800500D01*
X57004534Y-42768477D01*
X57199219Y-42705220D01*
X57381610Y-42612287D01*
X57474590Y-42544732D01*
X57547213Y-42491971D01*
X57547215Y-42491968D01*
X57547219Y-42491966D01*
X57691966Y-42347219D01*
X57691968Y-42347215D01*
X57691971Y-42347213D01*
X57812284Y-42181614D01*
X57812286Y-42181611D01*
X57812287Y-42181610D01*
X57859516Y-42088917D01*
X57907489Y-42038123D01*
X57975310Y-42021328D01*
X58041445Y-42043865D01*
X58080483Y-42088917D01*
X58084987Y-42097755D01*
X58127715Y-42181614D01*
X58248028Y-42347213D01*
X58392786Y-42491971D01*
X58547749Y-42604556D01*
X58558390Y-42612287D01*
X58674607Y-42671503D01*
X58740776Y-42705218D01*
X58740778Y-42705218D01*
X58740781Y-42705220D01*
X58845137Y-42739127D01*
X58935465Y-42768477D01*
X59036557Y-42784488D01*
X59137648Y-42800500D01*
X59137649Y-42800500D01*
X59342351Y-42800500D01*
X59342352Y-42800500D01*
X59544534Y-42768477D01*
X59739219Y-42705220D01*
X59921610Y-42612287D01*
X60014590Y-42544732D01*
X60087213Y-42491971D01*
X60087215Y-42491968D01*
X60087219Y-42491966D01*
X60231966Y-42347219D01*
X60231968Y-42347215D01*
X60231971Y-42347213D01*
X60352284Y-42181614D01*
X60352286Y-42181611D01*
X60352287Y-42181610D01*
X60399516Y-42088917D01*
X60447489Y-42038123D01*
X60515310Y-42021328D01*
X60581445Y-42043865D01*
X60620483Y-42088917D01*
X60624987Y-42097755D01*
X60667715Y-42181614D01*
X60788028Y-42347213D01*
X60932786Y-42491971D01*
X61087749Y-42604556D01*
X61098390Y-42612287D01*
X61214607Y-42671503D01*
X61280776Y-42705218D01*
X61280778Y-42705218D01*
X61280781Y-42705220D01*
X61385137Y-42739127D01*
X61475465Y-42768477D01*
X61576557Y-42784488D01*
X61677648Y-42800500D01*
X61677649Y-42800500D01*
X61882351Y-42800500D01*
X61882352Y-42800500D01*
X62084534Y-42768477D01*
X62279219Y-42705220D01*
X62461610Y-42612287D01*
X62554590Y-42544732D01*
X62627213Y-42491971D01*
X62627215Y-42491968D01*
X62627219Y-42491966D01*
X62771966Y-42347219D01*
X62771968Y-42347215D01*
X62771971Y-42347213D01*
X62892284Y-42181614D01*
X62892286Y-42181611D01*
X62892287Y-42181610D01*
X62939516Y-42088917D01*
X62987489Y-42038123D01*
X63055310Y-42021328D01*
X63121445Y-42043865D01*
X63160483Y-42088917D01*
X63164987Y-42097755D01*
X63207715Y-42181614D01*
X63328028Y-42347213D01*
X63472786Y-42491971D01*
X63627749Y-42604556D01*
X63638390Y-42612287D01*
X63754607Y-42671503D01*
X63820776Y-42705218D01*
X63820778Y-42705218D01*
X63820781Y-42705220D01*
X63925137Y-42739127D01*
X64015465Y-42768477D01*
X64116557Y-42784488D01*
X64217648Y-42800500D01*
X64217649Y-42800500D01*
X64422351Y-42800500D01*
X64422352Y-42800500D01*
X64624534Y-42768477D01*
X64819219Y-42705220D01*
X65001610Y-42612287D01*
X65094590Y-42544732D01*
X65167213Y-42491971D01*
X65167215Y-42491968D01*
X65167219Y-42491966D01*
X65311966Y-42347219D01*
X65311968Y-42347215D01*
X65311971Y-42347213D01*
X65432284Y-42181614D01*
X65432286Y-42181611D01*
X65432287Y-42181610D01*
X65479516Y-42088917D01*
X65527489Y-42038123D01*
X65595310Y-42021328D01*
X65661445Y-42043865D01*
X65700483Y-42088917D01*
X65704987Y-42097755D01*
X65747715Y-42181614D01*
X65868028Y-42347213D01*
X66012786Y-42491971D01*
X66167749Y-42604556D01*
X66178390Y-42612287D01*
X66294607Y-42671503D01*
X66360776Y-42705218D01*
X66360778Y-42705218D01*
X66360781Y-42705220D01*
X66465137Y-42739127D01*
X66555465Y-42768477D01*
X66656557Y-42784488D01*
X66757648Y-42800500D01*
X66757649Y-42800500D01*
X66962351Y-42800500D01*
X66962352Y-42800500D01*
X67164534Y-42768477D01*
X67359219Y-42705220D01*
X67541610Y-42612287D01*
X67634590Y-42544732D01*
X67707213Y-42491971D01*
X67707215Y-42491968D01*
X67707219Y-42491966D01*
X67851966Y-42347219D01*
X67851968Y-42347215D01*
X67851971Y-42347213D01*
X67972284Y-42181614D01*
X67972286Y-42181611D01*
X67972287Y-42181610D01*
X68019516Y-42088917D01*
X68067489Y-42038123D01*
X68135310Y-42021328D01*
X68201445Y-42043865D01*
X68240483Y-42088917D01*
X68244987Y-42097755D01*
X68287715Y-42181614D01*
X68408028Y-42347213D01*
X68552786Y-42491971D01*
X68707749Y-42604556D01*
X68718390Y-42612287D01*
X68834607Y-42671503D01*
X68900776Y-42705218D01*
X68900778Y-42705218D01*
X68900781Y-42705220D01*
X69005137Y-42739127D01*
X69095465Y-42768477D01*
X69196557Y-42784488D01*
X69297648Y-42800500D01*
X69297649Y-42800500D01*
X69502351Y-42800500D01*
X69502352Y-42800500D01*
X69704534Y-42768477D01*
X69899219Y-42705220D01*
X70081610Y-42612287D01*
X70174590Y-42544732D01*
X70247213Y-42491971D01*
X70247215Y-42491968D01*
X70247219Y-42491966D01*
X70391966Y-42347219D01*
X70391968Y-42347215D01*
X70391971Y-42347213D01*
X70467699Y-42242980D01*
X70512287Y-42181610D01*
X70605220Y-41999219D01*
X70636185Y-41903915D01*
X70675622Y-41846242D01*
X70739981Y-41819043D01*
X70808827Y-41830958D01*
X70860303Y-41878202D01*
X70872047Y-41903917D01*
X70883055Y-41937797D01*
X70883057Y-41937800D01*
X70960056Y-42088919D01*
X70964559Y-42097755D01*
X71070069Y-42242980D01*
X71197019Y-42369930D01*
X71332916Y-42468663D01*
X71342248Y-42475443D01*
X71502200Y-42556943D01*
X71502202Y-42556944D01*
X71587566Y-42584680D01*
X71672932Y-42612417D01*
X71850241Y-42640500D01*
X71850242Y-42640500D01*
X72029758Y-42640500D01*
X72029759Y-42640500D01*
X72207068Y-42612417D01*
X72377800Y-42556943D01*
X72537752Y-42475443D01*
X72619293Y-42416200D01*
X72682980Y-42369930D01*
X72682982Y-42369927D01*
X72682986Y-42369925D01*
X72809925Y-42242986D01*
X72809927Y-42242982D01*
X72809930Y-42242980D01*
X72856200Y-42179293D01*
X72915443Y-42097752D01*
X72996943Y-41937800D01*
X73052417Y-41767068D01*
X73080500Y-41589759D01*
X73080500Y-41410241D01*
X73052417Y-41232932D01*
X72996943Y-41062200D01*
X72915443Y-40902248D01*
X72908663Y-40892916D01*
X72809930Y-40757019D01*
X72682980Y-40630069D01*
X72537755Y-40524559D01*
X72537754Y-40524558D01*
X72537752Y-40524557D01*
X72409202Y-40459057D01*
X72377797Y-40443055D01*
X72207069Y-40387583D01*
X72118413Y-40373541D01*
X72029759Y-40359500D01*
X71850241Y-40359500D01*
X71791138Y-40368861D01*
X71672930Y-40387583D01*
X71502202Y-40443055D01*
X71342244Y-40524559D01*
X71197019Y-40630069D01*
X71070069Y-40757019D01*
X70964559Y-40902244D01*
X70883056Y-41062201D01*
X70872047Y-41096083D01*
X70832609Y-41153758D01*
X70768250Y-41180956D01*
X70699404Y-41169041D01*
X70647928Y-41121796D01*
X70636185Y-41096083D01*
X70605220Y-41000781D01*
X70512287Y-40818390D01*
X70467699Y-40757019D01*
X70391971Y-40652786D01*
X70247213Y-40508028D01*
X70081613Y-40387715D01*
X70081612Y-40387714D01*
X70081610Y-40387713D01*
X70001565Y-40346928D01*
X69899223Y-40294781D01*
X69704534Y-40231522D01*
X69516103Y-40201678D01*
X69502352Y-40199500D01*
X69297648Y-40199500D01*
X69283897Y-40201678D01*
X69095465Y-40231522D01*
X68900776Y-40294781D01*
X68718386Y-40387715D01*
X68552786Y-40508028D01*
X68408028Y-40652786D01*
X68287715Y-40818386D01*
X68240485Y-40911080D01*
X68192510Y-40961876D01*
X68124689Y-40978671D01*
X68058554Y-40956134D01*
X68019515Y-40911080D01*
X67972419Y-40818650D01*
X67972287Y-40818390D01*
X67927699Y-40757019D01*
X67851971Y-40652786D01*
X67707213Y-40508028D01*
X67541613Y-40387715D01*
X67541612Y-40387714D01*
X67541610Y-40387713D01*
X67461565Y-40346928D01*
X67359223Y-40294781D01*
X67164534Y-40231522D01*
X66976103Y-40201678D01*
X66962352Y-40199500D01*
X66757648Y-40199500D01*
X66743897Y-40201678D01*
X66555465Y-40231522D01*
X66360776Y-40294781D01*
X66178386Y-40387715D01*
X66012786Y-40508028D01*
X65868028Y-40652786D01*
X65747715Y-40818386D01*
X65700485Y-40911080D01*
X65652510Y-40961876D01*
X65584689Y-40978671D01*
X65518554Y-40956134D01*
X65479515Y-40911080D01*
X65432419Y-40818650D01*
X65432287Y-40818390D01*
X65387699Y-40757019D01*
X65311971Y-40652786D01*
X65167213Y-40508028D01*
X65001613Y-40387715D01*
X65001612Y-40387714D01*
X65001610Y-40387713D01*
X64921565Y-40346928D01*
X64819223Y-40294781D01*
X64624534Y-40231522D01*
X64436103Y-40201678D01*
X64422352Y-40199500D01*
X64217648Y-40199500D01*
X64203897Y-40201678D01*
X64015465Y-40231522D01*
X63820776Y-40294781D01*
X63638386Y-40387715D01*
X63472786Y-40508028D01*
X63328028Y-40652786D01*
X63207715Y-40818386D01*
X63160485Y-40911080D01*
X63112510Y-40961876D01*
X63044689Y-40978671D01*
X62978554Y-40956134D01*
X62939515Y-40911080D01*
X62892419Y-40818650D01*
X62892287Y-40818390D01*
X62847699Y-40757019D01*
X62771971Y-40652786D01*
X62627213Y-40508028D01*
X62461613Y-40387715D01*
X62461612Y-40387714D01*
X62461610Y-40387713D01*
X62381565Y-40346928D01*
X62279223Y-40294781D01*
X62084534Y-40231522D01*
X61896103Y-40201678D01*
X61882352Y-40199500D01*
X61677648Y-40199500D01*
X61663897Y-40201678D01*
X61475465Y-40231522D01*
X61280776Y-40294781D01*
X61098386Y-40387715D01*
X60932786Y-40508028D01*
X60788028Y-40652786D01*
X60667715Y-40818386D01*
X60620485Y-40911080D01*
X60572510Y-40961876D01*
X60504689Y-40978671D01*
X60438554Y-40956134D01*
X60399515Y-40911080D01*
X60352419Y-40818650D01*
X60352287Y-40818390D01*
X60307699Y-40757019D01*
X60231971Y-40652786D01*
X60087213Y-40508028D01*
X59921610Y-40387712D01*
X59908200Y-40380879D01*
X59897138Y-40370431D01*
X59883297Y-40364110D01*
X59872255Y-40346928D01*
X59857406Y-40332903D01*
X59853165Y-40317223D01*
X59845523Y-40305332D01*
X59840500Y-40270397D01*
X59840500Y-40140096D01*
X59860185Y-40073057D01*
X59876814Y-40052420D01*
X63282139Y-36647094D01*
X63343460Y-36613611D01*
X63413152Y-36618595D01*
X63417271Y-36620216D01*
X63440491Y-36629834D01*
X63516113Y-36661158D01*
X63737762Y-36720548D01*
X63954312Y-36749057D01*
X63961460Y-36749999D01*
X63965266Y-36750500D01*
X63965273Y-36750500D01*
X64194727Y-36750500D01*
X64194734Y-36750500D01*
X64422238Y-36720548D01*
X64643887Y-36661158D01*
X64855888Y-36573344D01*
X65054612Y-36458611D01*
X65236661Y-36318919D01*
X65236665Y-36318914D01*
X65236670Y-36318911D01*
X65398911Y-36156670D01*
X65398914Y-36156665D01*
X65398919Y-36156661D01*
X65538611Y-35974612D01*
X65653344Y-35775888D01*
X65741158Y-35563887D01*
X65800548Y-35342238D01*
X65830500Y-35114734D01*
X65830500Y-34885266D01*
X65830499Y-34885258D01*
X67409500Y-34885258D01*
X67409500Y-35114741D01*
X67422677Y-35214823D01*
X67439452Y-35342238D01*
X67495834Y-35552661D01*
X67498842Y-35563887D01*
X67586650Y-35775876D01*
X67586657Y-35775890D01*
X67701392Y-35974617D01*
X67841081Y-36156661D01*
X67841089Y-36156670D01*
X68003330Y-36318911D01*
X68003338Y-36318918D01*
X68185382Y-36458607D01*
X68185385Y-36458608D01*
X68185388Y-36458611D01*
X68384112Y-36573344D01*
X68384118Y-36573346D01*
X68387753Y-36575139D01*
X68387187Y-36576285D01*
X68437337Y-36616677D01*
X68459420Y-36682965D01*
X68459500Y-36687424D01*
X68459500Y-38357059D01*
X68439815Y-38424098D01*
X68423181Y-38444740D01*
X68378213Y-38489707D01*
X68378210Y-38489711D01*
X68290609Y-38620814D01*
X68290602Y-38620827D01*
X68230264Y-38766498D01*
X68230261Y-38766510D01*
X68199500Y-38921153D01*
X68199500Y-39078846D01*
X68230261Y-39233489D01*
X68230264Y-39233501D01*
X68290602Y-39379172D01*
X68290609Y-39379185D01*
X68378210Y-39510288D01*
X68378213Y-39510292D01*
X68489707Y-39621786D01*
X68489711Y-39621789D01*
X68620814Y-39709390D01*
X68620827Y-39709397D01*
X68745272Y-39760943D01*
X68766503Y-39769737D01*
X68921153Y-39800499D01*
X68921156Y-39800500D01*
X68921158Y-39800500D01*
X69078844Y-39800500D01*
X69078845Y-39800499D01*
X69233497Y-39769737D01*
X69379179Y-39709394D01*
X69510289Y-39621789D01*
X69621789Y-39510289D01*
X69709394Y-39379179D01*
X69769737Y-39233497D01*
X69780763Y-39178060D01*
X69784267Y-39164502D01*
X69785840Y-39159580D01*
X69833580Y-39044329D01*
X69850166Y-38960943D01*
X69860500Y-38908993D01*
X69860500Y-36687424D01*
X69880185Y-36620385D01*
X69932293Y-36575232D01*
X69932247Y-36575139D01*
X69932605Y-36574962D01*
X69932989Y-36574630D01*
X69935463Y-36573552D01*
X69935874Y-36573349D01*
X69935888Y-36573344D01*
X70134612Y-36458611D01*
X70316661Y-36318919D01*
X70316665Y-36318914D01*
X70316670Y-36318911D01*
X70478911Y-36156670D01*
X70478914Y-36156665D01*
X70478919Y-36156661D01*
X70618611Y-35974612D01*
X70733344Y-35775888D01*
X70821158Y-35563887D01*
X70880548Y-35342238D01*
X70910500Y-35114734D01*
X70910500Y-34885266D01*
X70880548Y-34657762D01*
X70821158Y-34436113D01*
X70733344Y-34224112D01*
X70618611Y-34025388D01*
X70618608Y-34025385D01*
X70618607Y-34025382D01*
X70478918Y-33843338D01*
X70478911Y-33843330D01*
X70316670Y-33681089D01*
X70316661Y-33681081D01*
X70134617Y-33541392D01*
X69935890Y-33426657D01*
X69935876Y-33426650D01*
X69723887Y-33338842D01*
X69502238Y-33279452D01*
X69464215Y-33274446D01*
X69274741Y-33249500D01*
X69274734Y-33249500D01*
X69045266Y-33249500D01*
X69045258Y-33249500D01*
X68828715Y-33278009D01*
X68817762Y-33279452D01*
X68724076Y-33304554D01*
X68596112Y-33338842D01*
X68384123Y-33426650D01*
X68384109Y-33426657D01*
X68185382Y-33541392D01*
X68003338Y-33681081D01*
X67841081Y-33843338D01*
X67701392Y-34025382D01*
X67586657Y-34224109D01*
X67586650Y-34224123D01*
X67498842Y-34436112D01*
X67439453Y-34657759D01*
X67439451Y-34657770D01*
X67409500Y-34885258D01*
X65830499Y-34885258D01*
X65800548Y-34657762D01*
X65741158Y-34436113D01*
X65653344Y-34224112D01*
X65538611Y-34025388D01*
X65538608Y-34025385D01*
X65538607Y-34025382D01*
X65398918Y-33843338D01*
X65398911Y-33843330D01*
X65236670Y-33681089D01*
X65236661Y-33681081D01*
X65054617Y-33541392D01*
X64855890Y-33426657D01*
X64855876Y-33426650D01*
X64643887Y-33338842D01*
X64422238Y-33279452D01*
X64384215Y-33274446D01*
X64194741Y-33249500D01*
X64194734Y-33249500D01*
X63965266Y-33249500D01*
X63965258Y-33249500D01*
X63748715Y-33278009D01*
X63737762Y-33279452D01*
X63644076Y-33304554D01*
X63516112Y-33338842D01*
X63304123Y-33426650D01*
X63304109Y-33426657D01*
X63105382Y-33541392D01*
X62923338Y-33681081D01*
X62761081Y-33843338D01*
X62621392Y-34025382D01*
X62506657Y-34224109D01*
X62506650Y-34224123D01*
X62418842Y-34436112D01*
X62359453Y-34657759D01*
X62359451Y-34657770D01*
X62329500Y-34885258D01*
X62329500Y-35114741D01*
X62342677Y-35214823D01*
X62359452Y-35342238D01*
X62418842Y-35563887D01*
X62456331Y-35654394D01*
X62459783Y-35662726D01*
X62467252Y-35732196D01*
X62435977Y-35794675D01*
X62432903Y-35797860D01*
X58871286Y-39359478D01*
X58759481Y-39471282D01*
X58759480Y-39471284D01*
X58717432Y-39544114D01*
X58680423Y-39608215D01*
X58639499Y-39760943D01*
X58639499Y-39760945D01*
X58639499Y-39929046D01*
X58639500Y-39929059D01*
X58639500Y-40270397D01*
X58619815Y-40337436D01*
X58571800Y-40380879D01*
X58558389Y-40387712D01*
X58392786Y-40508028D01*
X58248028Y-40652786D01*
X58127715Y-40818386D01*
X58080485Y-40911080D01*
X58032510Y-40961876D01*
X57964689Y-40978671D01*
X57898554Y-40956134D01*
X57859515Y-40911080D01*
X57812419Y-40818650D01*
X57812287Y-40818390D01*
X57767699Y-40757019D01*
X57691971Y-40652786D01*
X57547213Y-40508028D01*
X57381613Y-40387715D01*
X57381612Y-40387714D01*
X57381610Y-40387713D01*
X57301565Y-40346928D01*
X57199223Y-40294781D01*
X57004534Y-40231522D01*
X56816103Y-40201678D01*
X56802352Y-40199500D01*
X56597648Y-40199500D01*
X56583897Y-40201678D01*
X56395465Y-40231522D01*
X56200776Y-40294781D01*
X56018386Y-40387715D01*
X55852786Y-40508028D01*
X55708028Y-40652786D01*
X55587715Y-40818386D01*
X55540485Y-40911080D01*
X55492510Y-40961876D01*
X55424689Y-40978671D01*
X55358554Y-40956134D01*
X55319515Y-40911080D01*
X55272419Y-40818650D01*
X55272287Y-40818390D01*
X55227699Y-40757019D01*
X55151971Y-40652786D01*
X55007213Y-40508028D01*
X54841613Y-40387715D01*
X54841612Y-40387714D01*
X54841610Y-40387713D01*
X54761565Y-40346928D01*
X54659223Y-40294781D01*
X54464534Y-40231522D01*
X54276103Y-40201678D01*
X54262352Y-40199500D01*
X54057648Y-40199500D01*
X54043897Y-40201678D01*
X53855465Y-40231522D01*
X53660776Y-40294781D01*
X53478386Y-40387715D01*
X53312786Y-40508028D01*
X53168028Y-40652786D01*
X53047715Y-40818386D01*
X53000485Y-40911080D01*
X52952510Y-40961876D01*
X52884689Y-40978671D01*
X52818554Y-40956134D01*
X52779515Y-40911080D01*
X52732419Y-40818650D01*
X52732287Y-40818390D01*
X52687699Y-40757019D01*
X52611971Y-40652786D01*
X52467213Y-40508028D01*
X52301613Y-40387715D01*
X52301612Y-40387714D01*
X52301610Y-40387713D01*
X52221565Y-40346928D01*
X52119223Y-40294781D01*
X51924534Y-40231522D01*
X51736103Y-40201678D01*
X51722352Y-40199500D01*
X51517648Y-40199500D01*
X51313374Y-40231853D01*
X51307949Y-40231151D01*
X51302823Y-40233064D01*
X51273667Y-40226721D01*
X51244081Y-40222898D01*
X51238477Y-40219066D01*
X51234550Y-40218212D01*
X51206296Y-40197061D01*
X51176819Y-40167584D01*
X51143334Y-40106261D01*
X51140500Y-40079903D01*
X51140500Y-37228846D01*
X51160185Y-37161807D01*
X51212989Y-37116052D01*
X51217048Y-37114285D01*
X51315876Y-37073349D01*
X51315876Y-37073348D01*
X51315888Y-37073344D01*
X51514612Y-36958611D01*
X51696661Y-36818919D01*
X51696665Y-36818914D01*
X51696670Y-36818911D01*
X51858911Y-36656670D01*
X51858914Y-36656665D01*
X51858919Y-36656661D01*
X51998611Y-36474612D01*
X52113344Y-36275888D01*
X52201158Y-36063887D01*
X52260548Y-35842238D01*
X52290500Y-35614734D01*
X52290500Y-35385266D01*
X52260548Y-35157762D01*
X52201158Y-34936113D01*
X52151190Y-34815480D01*
X52113349Y-34724123D01*
X52113346Y-34724117D01*
X52113344Y-34724112D01*
X51998611Y-34525388D01*
X51998608Y-34525385D01*
X51998607Y-34525382D01*
X51858918Y-34343338D01*
X51858911Y-34343330D01*
X51696670Y-34181089D01*
X51696661Y-34181081D01*
X51514617Y-34041392D01*
X51315890Y-33926657D01*
X51315876Y-33926650D01*
X51103887Y-33838842D01*
X50882238Y-33779452D01*
X50844215Y-33774446D01*
X50654741Y-33749500D01*
X50654734Y-33749500D01*
X50425266Y-33749500D01*
X50425258Y-33749500D01*
X50208715Y-33778009D01*
X50197762Y-33779452D01*
X50104076Y-33804554D01*
X49976112Y-33838842D01*
X49764123Y-33926650D01*
X49764109Y-33926657D01*
X49565382Y-34041392D01*
X49383338Y-34181081D01*
X49221081Y-34343338D01*
X49081392Y-34525382D01*
X48966657Y-34724109D01*
X48966650Y-34724123D01*
X48878842Y-34936112D01*
X48878842Y-34936113D01*
X48820355Y-35154394D01*
X48819453Y-35157759D01*
X48819451Y-35157770D01*
X48789500Y-35385258D01*
X48789500Y-35614741D01*
X48794721Y-35654394D01*
X48819452Y-35842238D01*
X48878841Y-36063882D01*
X48878842Y-36063887D01*
X48966650Y-36275876D01*
X48966657Y-36275890D01*
X49081392Y-36474617D01*
X49221081Y-36656661D01*
X49221089Y-36656670D01*
X49383330Y-36818911D01*
X49383338Y-36818918D01*
X49565382Y-36958607D01*
X49565385Y-36958608D01*
X49565388Y-36958611D01*
X49764112Y-37073344D01*
X49764117Y-37073346D01*
X49764123Y-37073349D01*
X49862952Y-37114285D01*
X49917356Y-37158125D01*
X49939421Y-37224420D01*
X49939500Y-37228846D01*
X49939500Y-38836386D01*
X49936257Y-38847427D01*
X49937444Y-38858876D01*
X49926590Y-38880349D01*
X49919815Y-38903425D01*
X49911119Y-38910959D01*
X49905927Y-38921233D01*
X49885188Y-38933429D01*
X49867011Y-38949180D01*
X49855620Y-38950817D01*
X49845700Y-38956652D01*
X49821663Y-38955700D01*
X49797853Y-38959124D01*
X49787384Y-38954343D01*
X49775885Y-38953888D01*
X49756179Y-38940092D01*
X49734297Y-38930099D01*
X49726604Y-38919387D01*
X49718648Y-38913817D01*
X49709236Y-38895202D01*
X49700756Y-38883394D01*
X49697765Y-38876094D01*
X49679577Y-38808215D01*
X49650639Y-38758095D01*
X49600520Y-38671284D01*
X49488716Y-38559480D01*
X49488715Y-38559479D01*
X49484385Y-38555149D01*
X49484374Y-38555139D01*
X47227096Y-36297861D01*
X47193611Y-36236538D01*
X47198595Y-36166846D01*
X47200200Y-36162764D01*
X47241158Y-36063887D01*
X47300548Y-35842238D01*
X47330500Y-35614734D01*
X47330500Y-35385266D01*
X47300548Y-35157762D01*
X47241158Y-34936113D01*
X47191190Y-34815480D01*
X47153349Y-34724123D01*
X47153346Y-34724117D01*
X47153344Y-34724112D01*
X47038611Y-34525388D01*
X47038608Y-34525385D01*
X47038607Y-34525382D01*
X46898918Y-34343338D01*
X46898911Y-34343330D01*
X46736670Y-34181089D01*
X46736661Y-34181081D01*
X46554617Y-34041392D01*
X46355890Y-33926657D01*
X46355876Y-33926650D01*
X46143887Y-33838842D01*
X45922238Y-33779452D01*
X45884215Y-33774446D01*
X45694741Y-33749500D01*
X45694734Y-33749500D01*
X45465266Y-33749500D01*
X45465258Y-33749500D01*
X45248715Y-33778009D01*
X45237762Y-33779452D01*
X45144076Y-33804554D01*
X45016112Y-33838842D01*
X44804123Y-33926650D01*
X44804109Y-33926657D01*
X44605382Y-34041392D01*
X44423338Y-34181081D01*
X44261081Y-34343338D01*
X44121392Y-34525382D01*
X44006657Y-34724109D01*
X44006650Y-34724123D01*
X43918842Y-34936112D01*
X43918842Y-34936113D01*
X43860355Y-35154394D01*
X43859453Y-35157759D01*
X43859451Y-35157770D01*
X43829500Y-35385258D01*
X43829500Y-35614741D01*
X43834721Y-35654394D01*
X43859452Y-35842238D01*
X43918841Y-36063882D01*
X43918842Y-36063887D01*
X44006650Y-36275876D01*
X44006657Y-36275890D01*
X44121392Y-36474617D01*
X44261081Y-36656661D01*
X44261089Y-36656670D01*
X44423330Y-36818911D01*
X44423338Y-36818918D01*
X44605382Y-36958607D01*
X44605385Y-36958608D01*
X44605388Y-36958611D01*
X44804112Y-37073344D01*
X44804117Y-37073346D01*
X44804123Y-37073349D01*
X44840723Y-37088509D01*
X45016113Y-37161158D01*
X45237762Y-37220548D01*
X45454312Y-37249057D01*
X45461460Y-37249999D01*
X45465266Y-37250500D01*
X45465273Y-37250500D01*
X45694727Y-37250500D01*
X45694734Y-37250500D01*
X45922238Y-37220548D01*
X46143887Y-37161158D01*
X46242728Y-37120215D01*
X46312196Y-37112747D01*
X46374675Y-37144021D01*
X46377861Y-37147096D01*
X48483181Y-39252416D01*
X48516666Y-39313739D01*
X48519500Y-39340097D01*
X48519500Y-40250016D01*
X48499815Y-40317055D01*
X48451796Y-40360500D01*
X48398388Y-40387713D01*
X48232786Y-40508028D01*
X48088028Y-40652786D01*
X47967715Y-40818386D01*
X47920485Y-40911080D01*
X47872510Y-40961876D01*
X47804689Y-40978671D01*
X47738554Y-40956134D01*
X47699515Y-40911080D01*
X47652419Y-40818650D01*
X47652287Y-40818390D01*
X47607699Y-40757019D01*
X47531971Y-40652786D01*
X47387213Y-40508028D01*
X47221613Y-40387715D01*
X47221612Y-40387714D01*
X47221610Y-40387713D01*
X47141565Y-40346928D01*
X47039223Y-40294781D01*
X46844534Y-40231522D01*
X46656103Y-40201678D01*
X46642352Y-40199500D01*
X46437648Y-40199500D01*
X46423897Y-40201678D01*
X46235465Y-40231522D01*
X46040776Y-40294781D01*
X45858386Y-40387715D01*
X45692786Y-40508028D01*
X45548028Y-40652786D01*
X45427715Y-40818386D01*
X45380485Y-40911080D01*
X45332510Y-40961876D01*
X45264689Y-40978671D01*
X45198554Y-40956134D01*
X45159515Y-40911080D01*
X45112419Y-40818650D01*
X45112287Y-40818390D01*
X45067699Y-40757019D01*
X44991971Y-40652786D01*
X44847213Y-40508028D01*
X44681613Y-40387715D01*
X44681612Y-40387714D01*
X44681610Y-40387713D01*
X44601565Y-40346928D01*
X44499223Y-40294781D01*
X44304534Y-40231522D01*
X44116103Y-40201678D01*
X44102352Y-40199500D01*
X43897648Y-40199500D01*
X43883897Y-40201678D01*
X43695465Y-40231522D01*
X43500776Y-40294781D01*
X43318386Y-40387715D01*
X43152786Y-40508028D01*
X43008028Y-40652786D01*
X42887715Y-40818386D01*
X42840485Y-40911080D01*
X42792510Y-40961876D01*
X42724689Y-40978671D01*
X42658554Y-40956134D01*
X42619515Y-40911080D01*
X42572419Y-40818650D01*
X42572287Y-40818390D01*
X42527699Y-40757019D01*
X42451971Y-40652786D01*
X42307213Y-40508028D01*
X42141613Y-40387715D01*
X42141612Y-40387714D01*
X42141610Y-40387713D01*
X42061565Y-40346928D01*
X41959223Y-40294781D01*
X41764534Y-40231522D01*
X41576103Y-40201678D01*
X41562352Y-40199500D01*
X41357648Y-40199500D01*
X41343892Y-40201678D01*
X41274599Y-40192720D01*
X41221149Y-40147721D01*
X41200513Y-40080969D01*
X41200500Y-40079204D01*
X41200500Y-37187424D01*
X41220185Y-37120385D01*
X41272293Y-37075232D01*
X41272247Y-37075139D01*
X41272605Y-37074962D01*
X41272989Y-37074630D01*
X41275463Y-37073552D01*
X41275874Y-37073349D01*
X41275888Y-37073344D01*
X41474612Y-36958611D01*
X41656661Y-36818919D01*
X41656665Y-36818914D01*
X41656670Y-36818911D01*
X41818911Y-36656670D01*
X41818914Y-36656665D01*
X41818919Y-36656661D01*
X41958611Y-36474612D01*
X42073344Y-36275888D01*
X42161158Y-36063887D01*
X42220548Y-35842238D01*
X42250500Y-35614734D01*
X42250500Y-35385266D01*
X42220548Y-35157762D01*
X42161158Y-34936113D01*
X42111190Y-34815480D01*
X42073349Y-34724123D01*
X42073346Y-34724117D01*
X42073344Y-34724112D01*
X41958611Y-34525388D01*
X41958608Y-34525385D01*
X41958607Y-34525382D01*
X41818918Y-34343338D01*
X41818911Y-34343330D01*
X41656670Y-34181089D01*
X41656661Y-34181081D01*
X41474617Y-34041392D01*
X41275890Y-33926657D01*
X41275876Y-33926650D01*
X41063887Y-33838842D01*
X40842238Y-33779452D01*
X40804215Y-33774446D01*
X40614741Y-33749500D01*
X40614734Y-33749500D01*
X40385266Y-33749500D01*
X40385258Y-33749500D01*
X40168715Y-33778009D01*
X40157762Y-33779452D01*
X40064076Y-33804554D01*
X39936112Y-33838842D01*
X39724123Y-33926650D01*
X39724109Y-33926657D01*
X39525382Y-34041392D01*
X39343338Y-34181081D01*
X39181081Y-34343338D01*
X39041392Y-34525382D01*
X38926657Y-34724109D01*
X38926650Y-34724123D01*
X38838842Y-34936112D01*
X38838842Y-34936113D01*
X38780355Y-35154394D01*
X38779453Y-35157759D01*
X38779451Y-35157770D01*
X38749500Y-35385258D01*
X38749500Y-35614741D01*
X38754721Y-35654394D01*
X38779452Y-35842238D01*
X38838841Y-36063882D01*
X38838842Y-36063887D01*
X38926650Y-36275876D01*
X38926657Y-36275890D01*
X39041392Y-36474617D01*
X39181081Y-36656661D01*
X39181089Y-36656670D01*
X39343330Y-36818911D01*
X39343338Y-36818918D01*
X39525382Y-36958607D01*
X39525385Y-36958608D01*
X39525388Y-36958611D01*
X39724112Y-37073344D01*
X39724118Y-37073346D01*
X39727753Y-37075139D01*
X39727187Y-37076285D01*
X39777337Y-37116677D01*
X39799420Y-37182965D01*
X39799500Y-37187424D01*
X39799500Y-40288124D01*
X39779815Y-40355163D01*
X39727011Y-40400918D01*
X39657853Y-40410862D01*
X39606028Y-40389830D01*
X39605766Y-40390259D01*
X39603177Y-40388672D01*
X39602621Y-40388447D01*
X39601612Y-40387714D01*
X39419223Y-40294781D01*
X39224534Y-40231522D01*
X39036103Y-40201678D01*
X39022352Y-40199500D01*
X38817648Y-40199500D01*
X38803897Y-40201678D01*
X38615465Y-40231522D01*
X38420776Y-40294781D01*
X38238386Y-40387715D01*
X38072786Y-40508028D01*
X37928028Y-40652786D01*
X37807713Y-40818388D01*
X37760203Y-40911630D01*
X37712228Y-40962426D01*
X37644407Y-40979220D01*
X37578272Y-40956682D01*
X37539234Y-40911628D01*
X37491861Y-40818652D01*
X37371582Y-40653105D01*
X37371582Y-40653104D01*
X37226895Y-40508417D01*
X37061349Y-40388140D01*
X36879029Y-40295244D01*
X36684413Y-40232009D01*
X36630000Y-40223390D01*
X36630000Y-41066988D01*
X36572993Y-41034075D01*
X36445826Y-41000000D01*
X36314174Y-41000000D01*
X36187007Y-41034075D01*
X36130000Y-41066988D01*
X36130000Y-40223390D01*
X36075586Y-40232009D01*
X35880970Y-40295244D01*
X35698650Y-40388140D01*
X35533105Y-40508417D01*
X35533104Y-40508417D01*
X35388417Y-40653104D01*
X35388417Y-40653105D01*
X35268140Y-40818650D01*
X35220765Y-40911629D01*
X35172790Y-40962425D01*
X35104969Y-40979220D01*
X35038834Y-40956682D01*
X34999795Y-40911629D01*
X34952419Y-40818650D01*
X34952287Y-40818390D01*
X34907699Y-40757019D01*
X34831971Y-40652786D01*
X34687213Y-40508028D01*
X34521613Y-40387715D01*
X34521612Y-40387714D01*
X34521610Y-40387713D01*
X34441565Y-40346928D01*
X34339223Y-40294781D01*
X34144534Y-40231522D01*
X33956103Y-40201678D01*
X33942352Y-40199500D01*
X33737648Y-40199500D01*
X33723897Y-40201678D01*
X33535465Y-40231522D01*
X33340776Y-40294781D01*
X33158386Y-40387715D01*
X32992786Y-40508028D01*
X32848028Y-40652786D01*
X32727715Y-40818386D01*
X32634781Y-41000777D01*
X32603814Y-41096083D01*
X32564376Y-41153758D01*
X32500017Y-41180956D01*
X32431170Y-41169041D01*
X32379695Y-41121796D01*
X32367951Y-41096080D01*
X32362303Y-41078698D01*
X32356943Y-41062200D01*
X32275443Y-40902248D01*
X32268663Y-40892916D01*
X32169930Y-40757019D01*
X32042980Y-40630069D01*
X31897755Y-40524559D01*
X31897754Y-40524558D01*
X31897752Y-40524557D01*
X31769202Y-40459057D01*
X31737797Y-40443055D01*
X31567069Y-40387583D01*
X31478413Y-40373541D01*
X31389759Y-40359500D01*
X31210241Y-40359500D01*
X31151138Y-40368861D01*
X31032930Y-40387583D01*
X30862202Y-40443055D01*
X30702244Y-40524559D01*
X30557019Y-40630069D01*
X30430069Y-40757019D01*
X30324559Y-40902244D01*
X30243055Y-41062202D01*
X30187583Y-41232930D01*
X30159500Y-41410241D01*
X28500500Y-41410241D01*
X28500500Y-34202155D01*
X33670000Y-34202155D01*
X33670000Y-35250000D01*
X35104314Y-35250000D01*
X35099920Y-35254394D01*
X35047259Y-35345606D01*
X35020000Y-35447339D01*
X35020000Y-35552661D01*
X35047259Y-35654394D01*
X35099920Y-35745606D01*
X35104314Y-35750000D01*
X33670000Y-35750000D01*
X33670000Y-36797844D01*
X33676401Y-36857372D01*
X33676403Y-36857379D01*
X33726645Y-36992086D01*
X33726649Y-36992093D01*
X33812809Y-37107187D01*
X33812812Y-37107190D01*
X33927906Y-37193350D01*
X33927913Y-37193354D01*
X34062620Y-37243596D01*
X34062627Y-37243598D01*
X34122155Y-37249999D01*
X34122172Y-37250000D01*
X35170000Y-37250000D01*
X35170000Y-35815686D01*
X35174394Y-35820080D01*
X35265606Y-35872741D01*
X35367339Y-35900000D01*
X35472661Y-35900000D01*
X35574394Y-35872741D01*
X35665606Y-35820080D01*
X35670000Y-35815686D01*
X35670000Y-37250000D01*
X36717828Y-37250000D01*
X36717844Y-37249999D01*
X36777372Y-37243598D01*
X36777379Y-37243596D01*
X36912086Y-37193354D01*
X36912093Y-37193350D01*
X37027187Y-37107190D01*
X37027190Y-37107187D01*
X37113350Y-36992093D01*
X37113354Y-36992086D01*
X37163596Y-36857379D01*
X37163598Y-36857372D01*
X37169999Y-36797844D01*
X37170000Y-36797827D01*
X37170000Y-35750000D01*
X35735686Y-35750000D01*
X35740080Y-35745606D01*
X35792741Y-35654394D01*
X35820000Y-35552661D01*
X35820000Y-35447339D01*
X35792741Y-35345606D01*
X35740080Y-35254394D01*
X35735686Y-35250000D01*
X37170000Y-35250000D01*
X37170000Y-34202172D01*
X37169999Y-34202155D01*
X37163598Y-34142627D01*
X37163596Y-34142620D01*
X37113354Y-34007913D01*
X37113350Y-34007906D01*
X37027190Y-33892812D01*
X37027187Y-33892809D01*
X36912093Y-33806649D01*
X36912086Y-33806645D01*
X36777379Y-33756403D01*
X36777372Y-33756401D01*
X36717844Y-33750000D01*
X35670000Y-33750000D01*
X35670000Y-35184314D01*
X35665606Y-35179920D01*
X35574394Y-35127259D01*
X35472661Y-35100000D01*
X35367339Y-35100000D01*
X35265606Y-35127259D01*
X35174394Y-35179920D01*
X35170000Y-35184314D01*
X35170000Y-33750000D01*
X34122155Y-33750000D01*
X34062627Y-33756401D01*
X34062620Y-33756403D01*
X33927913Y-33806645D01*
X33927906Y-33806649D01*
X33812812Y-33892809D01*
X33812809Y-33892812D01*
X33726649Y-34007906D01*
X33726645Y-34007913D01*
X33676403Y-34142620D01*
X33676401Y-34142627D01*
X33670000Y-34202155D01*
X28500500Y-34202155D01*
X28500500Y-33702155D01*
X57250000Y-33702155D01*
X57250000Y-34750000D01*
X58684314Y-34750000D01*
X58679920Y-34754394D01*
X58627259Y-34845606D01*
X58600000Y-34947339D01*
X58600000Y-35052661D01*
X58627259Y-35154394D01*
X58679920Y-35245606D01*
X58684314Y-35250000D01*
X57250000Y-35250000D01*
X57250000Y-36297844D01*
X57256401Y-36357372D01*
X57256403Y-36357379D01*
X57306645Y-36492086D01*
X57306649Y-36492093D01*
X57392809Y-36607187D01*
X57392812Y-36607190D01*
X57507906Y-36693350D01*
X57507913Y-36693354D01*
X57642620Y-36743596D01*
X57642627Y-36743598D01*
X57702155Y-36749999D01*
X57702172Y-36750000D01*
X58750000Y-36750000D01*
X58750000Y-35315686D01*
X58754394Y-35320080D01*
X58845606Y-35372741D01*
X58947339Y-35400000D01*
X59052661Y-35400000D01*
X59154394Y-35372741D01*
X59245606Y-35320080D01*
X59250000Y-35315686D01*
X59250000Y-36750000D01*
X60297828Y-36750000D01*
X60297844Y-36749999D01*
X60357372Y-36743598D01*
X60357379Y-36743596D01*
X60492086Y-36693354D01*
X60492093Y-36693350D01*
X60607187Y-36607190D01*
X60607190Y-36607187D01*
X60693350Y-36492093D01*
X60693354Y-36492086D01*
X60743596Y-36357379D01*
X60743598Y-36357372D01*
X60749999Y-36297844D01*
X60750000Y-36297827D01*
X60750000Y-35250000D01*
X59315686Y-35250000D01*
X59320080Y-35245606D01*
X59372741Y-35154394D01*
X59400000Y-35052661D01*
X59400000Y-34947339D01*
X59372741Y-34845606D01*
X59320080Y-34754394D01*
X59315686Y-34750000D01*
X60750000Y-34750000D01*
X60750000Y-33702172D01*
X60749999Y-33702155D01*
X60743598Y-33642627D01*
X60743596Y-33642620D01*
X60693354Y-33507913D01*
X60693350Y-33507906D01*
X60607190Y-33392812D01*
X60607187Y-33392809D01*
X60492093Y-33306649D01*
X60492086Y-33306645D01*
X60357379Y-33256403D01*
X60357372Y-33256401D01*
X60297844Y-33250000D01*
X59250000Y-33250000D01*
X59250000Y-34684314D01*
X59245606Y-34679920D01*
X59154394Y-34627259D01*
X59052661Y-34600000D01*
X58947339Y-34600000D01*
X58845606Y-34627259D01*
X58754394Y-34679920D01*
X58750000Y-34684314D01*
X58750000Y-33250000D01*
X57702155Y-33250000D01*
X57642627Y-33256401D01*
X57642620Y-33256403D01*
X57507913Y-33306645D01*
X57507906Y-33306649D01*
X57392812Y-33392809D01*
X57392809Y-33392812D01*
X57306649Y-33507906D01*
X57306645Y-33507913D01*
X57256403Y-33642620D01*
X57256401Y-33642627D01*
X57250000Y-33702155D01*
X28500500Y-33702155D01*
X28500500Y-33246288D01*
X28520185Y-33179249D01*
X28572989Y-33133494D01*
X28623860Y-33122290D01*
X75874862Y-32878728D01*
X75942001Y-32898066D01*
G37*
%TD.AperFunction*%
%TD*%
M02*
