M48
; DRILL file {KiCad 9.0.7} date 2026-04-10T19:37:20+0100
; FORMAT={-:-/ absolute / metric / decimal}
; #@! TF.CreationDate,2026-04-10T19:37:20+01:00
; #@! TF.GenerationSoftware,Kicad,Pcbnew,9.0.7
; #@! TF.FileFunction,Plated,1,2,PTH
FMAT,2
METRIC
; #@! TA.AperFunction,Plated,PTH,ViaDrill
T1C0.300
; #@! TA.AperFunction,Plated,PTH,ComponentDrill
T2C0.800
; #@! TA.AperFunction,Plated,PTH,ComponentDrill
T3C1.000
%
G90
G05
T1
X69.0Y-39.0
T2
X35.42Y-35.5
X40.5Y-35.5
X45.58Y-35.5
X50.54Y-35.5
X59.0Y-35.0
X64.08Y-35.0
X69.16Y-35.0
T3
X33.84Y-41.5
X33.84Y-56.74
X36.38Y-41.5
X36.38Y-56.74
X38.92Y-41.5
X38.92Y-56.74
X41.46Y-41.5
X41.46Y-56.74
X44.0Y-41.5
X44.0Y-56.74
X46.54Y-41.5
X46.54Y-56.74
X49.08Y-41.5
X49.08Y-56.74
X51.62Y-41.5
X51.62Y-56.74
X54.16Y-41.5
X54.16Y-56.74
X56.7Y-41.5
X56.7Y-56.74
X59.24Y-41.5
X59.24Y-56.74
X61.78Y-41.5
X61.78Y-56.74
X64.32Y-41.5
X64.32Y-56.74
X66.86Y-41.5
X66.86Y-56.74
X69.4Y-41.5
X69.4Y-56.74
M30
